  0
SECTION
  2
HEADER
  9
$ACADVER
  1
AC1014
  9
$HANDSEED
  5
FFFF
  9
$MEASUREMENT
 70
     1
  0
ENDSEC
  0
SECTION
  2
TABLES
  0
TABLE
  2
VPORT
  5
8
330
0
100
AcDbSymbolTable
 70
     4
  0
VPORT
  5
2E
330
8
100
AcDbSymbolTableRecord
100
AcDbViewportTableRecord
  2
*ACTIVE
 70
     0
 10
0.0
 20
0.0
 11
1.0
 21
1.0
 12
210.0
 22
148.5
 13
0.0
 23
0.0
 14
10.0
 24
10.0
 15
10.0
 25
10.0
 16
0.0
 26
0.0
 36
1.0
 17
0.0
 27
0.0
 37
0.0
 40
341.0
 41
1.24
 42
50.0
 43
0.0
 44
0.0
 50
0.0
 51
0.0
 71
     0
 72
   100
 73
     1
 74
     3
 75
     0
 76
     0
 77
     0
 78
     0
  0
ENDTAB
  0
TABLE
  2
LTYPE
  5
5
330
0
100
AcDbSymbolTable
 70
     1
  0
LTYPE
  5
14
330
5
100
AcDbSymbolTableRecord
100
AcDbLinetypeTableRecord
  2
BYBLOCK
 70
     0
  3

 72
    65
 73
     0
 40
0.0
  0
LTYPE
  5
15
330
5
100
AcDbSymbolTableRecord
100
AcDbLinetypeTableRecord
  2
BYLAYER
 70
     0
  3

 72
    65
 73
     0
 40
0.0
  0
LTYPE
  5
16
330
5
100
AcDbSymbolTableRecord
100
AcDbLinetypeTableRecord
  2
CONTINUOUS
 70
     0
  3
Solid line
 72
    65
 73
     0
 40
0.0
  0
ENDTAB
  0
TABLE
  2
LAYER
  5
2
100
AcDbSymbolTable
 70
8
  0
LAYER
  5
50
100
AcDbSymbolTableRecord
100
AcDbLayerTableRecord
  2
0
 70
0
  6
CONTINUOUS
  0
LAYER
  5
51
100
AcDbSymbolTableRecord
100
AcDbLayerTableRecord
  2
o
 70
0
  6
CONTINUOUS
  0
LAYER
  5
52
100
AcDbSymbolTableRecord
100
AcDbLayerTableRecord
  2
e
 70
0
  6
CONTINUOUS
  0
LAYER
  5
53
100
AcDbSymbolTableRecord
100
AcDbLayerTableRecord
  2
e_
 70
0
  6
CONTINUOUS
  0
LAYER
  5
54
100
AcDbSymbolTableRecord
100
AcDbLayerTableRecord
  2
s
 70
0
  6
CONTINUOUS
  0
LAYER
  5
55
100
AcDbSymbolTableRecord
100
AcDbLayerTableRecord
  2
s_
 70
0
  6
CONTINUOUS
  0
LAYER
  5
56
100
AcDbSymbolTableRecord
100
AcDbLayerTableRecord
  2
__
 70
0
  6
CONTINUOUS
  0
LAYER
  5
57
100
AcDbSymbolTableRecord
100
AcDbLayerTableRecord
  2
o_
 70
0
  6
CONTINUOUS
  0
ENDTAB
  0
TABLE
  2
STYLE
  5
3
330
0
100
AcDbSymbolTable
 70
     1
  0
STYLE
  5
11
330
3
100
AcDbSymbolTableRecord
100
AcDbTextStyleTableRecord
  2
STANDARD
 70
     0
 40
0.0
 41
1.0
 50
0.0
 71
     0
 42
2.5
  3
txt
  4

  0
ENDTAB
  0
TABLE
  2
VIEW
  5
6
330
0
100
AcDbSymbolTable
 70
     0
  0
ENDTAB
  0
TABLE
  2
UCS
  5
7
330
0
100
AcDbSymbolTable
 70
     0
  0
ENDTAB
  0
TABLE
  2
APPID
  5
9
330
0
100
AcDbSymbolTable
 70
     2
  0
APPID
  5
12
330
9
100
AcDbSymbolTableRecord
100
AcDbRegAppTableRecord
  2
ACAD
 70
     0
  0
ENDTAB
  0
TABLE
  2
DIMSTYLE
  5
A
330
0
100
AcDbSymbolTable
 70
     1
  0
DIMSTYLE
105
27
330
A
100
AcDbSymbolTableRecord
100
AcDbDimStyleTableRecord
  2
ISO-25
 70
     0
  3

  4

  5

  6

  7

 40
1.0
 41
2.5
 42
0.625
 43
3.75
 44
1.25
 45
0.0
 46
0.0
 47
0.0
 48
0.0
140
2.5
141
2.5
142
0.0
143
0.03937007874016
144
1.0
145
0.0
146
1.0
147
0.625
 71
     0
 72
     0
 73
     0
 74
     0
 75
     0
 76
     0
 77
     1
 78
     8
170
     0
171
     3
172
     1
173
     0
174
     0
175
     0
176
     0
177
     0
178
     0
270
     2
271
     2
272
     2
273
     2
274
     3
340
11
275
     0
280
     0
281
     0
282
     0
283
     0
284
     8
285
     0
286
     0
287
     3
288
     0
  0
ENDTAB
  0
TABLE
  2
BLOCK_RECORD
  5
1
330
0
100
AcDbSymbolTable
 70
     1
  0
BLOCK_RECORD
  5
1F
330
1
100
AcDbSymbolTableRecord
100
AcDbBlockTableRecord
  2
*MODEL_SPACE
  0
BLOCK_RECORD
  5
1B
330
1
100
AcDbSymbolTableRecord
100
AcDbBlockTableRecord
  2
*PAPER_SPACE
  0
ENDTAB
  0
ENDSEC
  0
SECTION
  2
BLOCKS
  0
BLOCK
  5
20
330
1F
100
AcDbEntity
  8
0
100
AcDbBlockBegin
  2
*MODEL_SPACE
 70
     0
 10
0.0
 20
0.0
 30
0.0
  3
*MODEL_SPACE
  1

  0
ENDBLK
  5
21
330
1F
100
AcDbEntity
  8
0
100
AcDbBlockEnd
  0
BLOCK
  5
1C
330
1B
100
AcDbEntity
 67
     1
  8
0
100
AcDbBlockBegin
  2
*PAPER_SPACE
  1

  0
ENDBLK
  5
1D
330
1B
100
AcDbEntity
 67
     1
  8
0
100
AcDbBlockEnd
  0
ENDSEC
  0
SECTION
  2
ENTITIES
  0
LWPOLYLINE
  5
100
100
AcDbEntity
  8
e_
 62
7
100
AcDbPolyline
 90
114
 70
0
 10
5.129302
 20
0.446391
 30
0.0
 10
4.591413
 20
0.459373
 30
0.0
 10
4.291561
 20
0.508847
 30
0.0
 10
4.054179
 20
0.548838
 30
0.0
 10
3.766821
 20
0.634802
 30
0.0
 10
3.479464
 20
0.720739
 30
0.0
 10
3.217094
 20
0.836902
 30
0.0
 10
2.779810
 20
1.051108
 30
0.0
 10
2.404996
 20
1.287498
 30
0.0
 10
1.978889
 20
1.619560
 30
0.0
 10
1.752684
 20
1.813250
 30
0.0
 10
1.589461
 20
1.996468
 30
0.0
 10
1.289360
 20
2.367139
 30
0.0
 10
1.063100
 20
2.704479
 30
0.0
 10
0.886628
 20
3.029317
 30
0.0
 10
0.711144
 20
3.441615
 30
0.0
 10
0.572901
 20
3.891393
 30
0.0
 10
0.496962
 20
4.291189
 30
0.0
 10
0.455306
 20
4.703487
 30
0.0
 10
0.439741
 20
4.928362
 30
0.0
 10
0.466846
 20
5.237113
 30
0.0
 10
0.493950
 20
5.545892
 30
0.0
 10
0.546190
 20
5.799356
 30
0.0
 10
0.598430
 20
6.052820
 30
0.0
 10
0.685687
 20
6.315174
 30
0.0
 10
0.772945
 20
6.577556
 30
0.0
 10
0.903616
 20
6.852412
 30
0.0
 10
1.163257
 20
7.334730
 30
0.0
 10
1.436317
 20
7.734356
 30
0.0
 10
1.580407
 20
7.926522
 30
0.0
 10
1.853797
 20
8.209280
 30
0.0
 10
2.127188
 20
8.492010
 30
0.0
 10
2.353550
 20
8.674975
 30
0.0
 10
2.767810
 20
8.983274
 30
0.0
 10
3.230081
 20
9.260134
 30
0.0
 10
3.504454
 20
9.411660
 30
0.0
 10
3.818170
 20
9.537277
 30
0.0
 10
4.131887
 20
9.662894
 30
0.0
 10
4.424425
 20
9.739404
 30
0.0
 10
4.922806
 20
9.852350
 30
0.0
 10
5.472832
 20
9.913648
 30
0.0
 10
5.817015
 20
9.938484
 30
0.0
 10
6.108720
 20
9.912802
 30
0.0
 10
6.400425
 20
9.887119
 30
0.0
 10
6.639104
 20
9.838408
 30
0.0
 10
7.115165
 20
9.711888
 30
0.0
 10
7.352547
 20
9.634079
 30
0.0
 10
7.635894
 20
9.499177
 30
0.0
 10
7.919241
 20
9.364246
 30
0.0
 10
8.160634
 20
9.206032
 30
0.0
 10
8.628606
 20
8.857629
 30
0.0
 10
8.855185
 20
8.667468
 30
0.0
 10
9.040902
 20
8.451540
 30
0.0
 10
9.358919
 20
8.043728
 30
0.0
 10
9.579305
 20
7.691543
 30
0.0
 10
9.751204
 20
7.329170
 30
0.0
 10
9.835017
 20
7.127042
 30
0.0
 10
5.733014
 20
7.114625
 30
0.0
 10
1.631012
 20
7.102207
 30
0.0
 10
1.550948
 20
6.914811
 30
0.0
 10
1.407849
 20
6.509032
 30
0.0
 10
1.306370
 20
6.071757
 30
0.0
 10
1.239316
 20
5.495290
 30
0.0
 10
1.210708
 20
5.137771
 30
0.0
 10
1.238883
 20
4.831532
 30
0.0
 10
1.267057
 20
4.525292
 30
0.0
 10
1.340309
 20
4.235252
 30
0.0
 10
1.413560
 20
3.945213
 30
0.0
 10
1.514212
 20
3.709642
 30
0.0
 10
1.737104
 20
3.261614
 30
0.0
 10
2.002573
 20
2.858883
 30
0.0
 10
2.319995
 20
2.482032
 30
0.0
 10
2.494189
 20
2.295511
 30
0.0
 10
2.724458
 20
2.108539
 30
0.0
 10
3.179617
 20
1.779834
 30
0.0
 10
3.654381
 20
1.518243
 30
0.0
 10
3.904257
 20
1.398326
 30
0.0
 10
4.174559
 20
1.308100
 30
0.0
 10
4.444861
 20
1.217874
 30
0.0
 10
4.686805
 20
1.168852
 30
0.0
 10
5.216108
 20
1.091043
 30
0.0
 10
5.503465
 20
1.062256
 30
0.0
 10
5.790823
 20
1.079190
 30
0.0
 10
6.078180
 20
1.096123
 30
0.0
 10
6.363806
 20
1.144609
 30
0.0
 10
6.649432
 20
1.193066
 30
0.0
 10
6.945176
 20
1.291957
 30
0.0
 10
7.240920
 20
1.390848
 30
0.0
 10
7.493161
 20
1.517594
 30
0.0
 10
7.936284
 20
1.772497
 30
0.0
 10
8.302079
 20
2.043176
 30
0.0
 10
8.715038
 20
2.432445
 30
0.0
 10
9.067610
 20
2.829080
 30
0.0
 10
9.338129
 20
3.216374
 30
0.0
 10
9.564499
 20
3.591193
 30
0.0
 10
9.668130
 20
3.772098
 30
0.0
 10
9.701386
 20
3.815588
 30
0.0
 10
9.838188
 20
3.751919
 30
0.0
 10
9.983822
 20
3.679416
 30
0.0
 10
9.843135
 20
3.362254
 30
0.0
 10
9.551854
 20
2.829080
 30
0.0
 10
9.269741
 20
2.416782
 30
0.0
 10
9.129389
 20
2.229358
 30
0.0
 10
8.865660
 20
1.958030
 30
0.0
 10
8.414523
 20
1.535232
 30
0.0
 10
8.019232
 20
1.247874
 30
0.0
 10
7.519480
 20
0.966752
 30
0.0
 10
7.227611
 20
0.821464
 30
0.0
 10
6.890278
 20
0.709366
 30
0.0
 10
6.552945
 20
0.597267
 30
0.0
 10
6.290575
 20
0.545648
 30
0.0
 10
5.816466
 20
0.468376
 30
0.0
 10
5.604727
 20
0.442694
 30
0.0
 10
5.129302
 20
0.446391
 30
0.0
  0
LWPOLYLINE
  5
101
100
AcDbEntity
  8
e_
 62
7
100
AcDbPolyline
 90
27
 70
0
 10
5.241091
 20
7.564459
 30
0.0
 10
8.564445
 20
7.564459
 30
0.0
 10
8.564445
 20
7.585343
 30
0.0
 10
8.368027
 20
7.841460
 30
0.0
 10
8.171609
 20
8.076692
 30
0.0
 10
7.974472
 20
8.247436
 30
0.0
 10
7.553625
 20
8.568323
 30
0.0
 10
7.116342
 20
8.825484
 30
0.0
 10
6.665385
 20
9.020782
 30
0.0
 10
6.428003
 20
9.109061
 30
0.0
 10
6.140645
 20
9.172617
 30
0.0
 10
5.853288
 20
9.236202
 30
0.0
 10
5.578424
 20
9.265525
 30
0.0
 10
5.303560
 20
9.294848
 30
0.0
 10
5.041190
 20
9.279043
 30
0.0
 10
4.553932
 20
9.224546
 30
0.0
 10
4.075198
 20
9.113012
 30
0.0
 10
3.821353
 20
9.040255
 30
0.0
 10
3.590516
 20
8.940744
 30
0.0
 10
3.157202
 20
8.724618
 30
0.0
 10
2.767316
 20
8.469094
 30
0.0
 10
2.383992
 20
8.140926
 30
0.0
 10
2.188076
 20
7.951668
 30
0.0
 10
2.052906
 20
7.772372
 30
0.0
 10
1.917737
 20
7.578711
 30
0.0
 10
1.917737
 20
7.564318
 30
0.0
 10
5.241091
 20
7.564459
 30
0.0
  0
LWPOLYLINE
  5
102
100
AcDbEntity
  8
s_
 62
7
100
AcDbPolyline
 90
173
 70
0
 10
3.759248
 20
0.458216
 30
0.0
 10
3.364046
 20
0.470352
 30
0.0
 10
2.987426
 20
0.514322
 30
0.0
 10
2.504882
 20
0.606524
 30
0.0
 10
2.104723
 20
0.726045
 30
0.0
 10
1.704565
 20
0.902095
 30
0.0
 10
1.480947
 20
1.014589
 30
0.0
 10
1.305501
 20
1.138484
 30
0.0
 10
1.130054
 20
1.262324
 30
0.0
 10
0.950655
 20
1.440773
 30
0.0
 10
0.771256
 20
1.619222
 30
0.0
 10
0.663809
 20
1.772214
 30
0.0
 10
0.470374
 20
2.094710
 30
0.0
 10
0.328534
 20
2.428409
 30
0.0
 10
0.272680
 20
2.592634
 30
0.0
 10
0.243881
 20
2.771168
 30
0.0
 10
0.215081
 20
2.949674
 30
0.0
 10
0.228201
 20
3.214201
 30
0.0
 10
0.241320
 20
3.478784
 30
0.0
 10
0.292000
 20
3.666377
 30
0.0
 10
0.342680
 20
3.853998
 30
0.0
 10
0.419751
 20
4.020820
 30
0.0
 10
0.579578
 20
4.315742
 30
0.0
 10
0.761618
 20
4.555518
 30
0.0
 10
0.860902
 20
4.667194
 30
0.0
 10
0.970845
 20
4.593110
 30
0.0
 10
1.121523
 20
4.484088
 30
0.0
 10
1.162257
 20
4.449149
 30
0.0
 10
1.038365
 20
4.315347
 30
0.0
 10
0.914473
 20
4.181546
 30
0.0
 10
0.827643
 20
4.016276
 30
0.0
 10
0.740813
 20
3.851035
 30
0.0
 10
0.704837
 20
3.712944
 30
0.0
 10
0.668860
 20
3.574796
 30
0.0
 10
0.669270
 20
3.373769
 30
0.0
 10
0.669679
 20
3.172770
 30
0.0
 10
0.702795
 20
3.016504
 30
0.0
 10
0.735911
 20
2.860294
 30
0.0
 10
0.808859
 20
2.685062
 30
0.0
 10
0.881806
 20
2.509830
 30
0.0
 10
1.003175
 20
2.324975
 30
0.0
 10
1.124545
 20
2.140063
 30
0.0
 10
1.290977
 20
1.964436
 30
0.0
 10
1.457409
 20
1.788809
 30
0.0
 10
1.665576
 20
1.627604
 30
0.0
 10
1.873743
 20
1.466370
 30
0.0
 10
2.103874
 20
1.336096
 30
0.0
 10
2.334005
 20
1.205766
 30
0.0
 10
2.566561
 20
1.110742
 30
0.0
 10
3.035454
 20
0.949254
 30
0.0
 10
3.300000
 20
0.900007
 30
0.0
 10
3.800000
 20
0.849997
 30
0.0
 10
4.250000
 20
0.849997
 30
0.0
 10
4.700000
 20
0.900007
 30
0.0
 10
4.950000
 20
0.950016
 30
0.0
 10
5.150000
 20
0.999998
 30
0.0
 10
5.350000
 20
1.050008
 30
0.0
 10
5.536106
 20
1.132417
 30
0.0
 10
5.714460
 20
1.274149
 30
0.0
 10
5.892813
 20
1.415881
 30
0.0
 10
6.017376
 20
1.566898
 30
0.0
 10
6.230496
 20
1.867352
 30
0.0
 10
6.387146
 20
2.193375
 30
0.0
 10
6.455238
 20
2.369961
 30
0.0
 10
6.493933
 20
2.557724
 30
0.0
 10
6.532629
 20
2.745486
 30
0.0
 10
6.546185
 20
2.969655
 30
0.0
 10
6.559740
 20
3.193796
 30
0.0
 10
6.531870
 20
3.402443
 30
0.0
 10
6.504001
 20
3.611118
 30
0.0
 10
6.446992
 20
3.790837
 30
0.0
 10
6.389983
 20
3.970556
 30
0.0
 10
6.301110
 20
4.122815
 30
0.0
 10
6.212238
 20
4.275074
 30
0.0
 10
6.047466
 20
4.442545
 30
0.0
 10
5.882696
 20
4.610015
 30
0.0
 10
5.741463
 20
4.704927
 30
0.0
 10
5.406747
 20
4.897064
 30
0.0
 10
4.983049
 20
5.085673
 30
0.0
 10
4.054812
 20
5.413841
 30
0.0
 10
3.148571
 20
5.736223
 30
0.0
 10
2.787351
 20
5.904569
 30
0.0
 10
2.469578
 20
6.113046
 30
0.0
 10
2.304807
 20
6.238748
 30
0.0
 10
2.218980
 20
6.342013
 30
0.0
 10
2.061810
 20
6.561384
 30
0.0
 10
1.990467
 20
6.677519
 30
0.0
 10
1.926248
 20
6.865846
 30
0.0
 10
1.862030
 20
7.054144
 30
0.0
 10
1.851088
 20
7.384994
 30
0.0
 10
1.840147
 20
7.715871
 30
0.0
 10
1.887957
 20
7.904960
 30
0.0
 10
1.935768
 20
8.094020
 30
0.0
 10
2.009902
 20
8.246054
 30
0.0
 10
2.084035
 20
8.398115
 30
0.0
 10
2.203129
 20
8.557119
 30
0.0
 10
2.322222
 20
8.716151
 30
0.0
 10
2.482651
 20
8.845776
 30
0.0
 10
2.643080
 20
8.975400
 30
0.0
 10
2.821376
 20
9.077000
 30
0.0
 10
2.999671
 20
9.178600
 30
0.0
 10
3.218715
 20
9.251244
 30
0.0
 10
3.437759
 20
9.323888
 30
0.0
 10
3.645260
 20
9.360069
 30
0.0
 10
3.852761
 20
9.396250
 30
0.0
 10
4.083362
 20
9.396250
 30
0.0
 10
4.313963
 20
9.396250
 30
0.0
 10
4.497037
 20
9.370850
 30
0.0
 10
4.893014
 20
9.289994
 30
0.0
 10
5.406036
 20
9.124640
 30
0.0
 10
5.706081
 20
8.999530
 30
0.0
 10
5.516595
 20
8.729416
 30
0.0
 10
5.327184
 20
8.474484
 30
0.0
 10
5.257657
 20
8.570468
 30
0.0
 10
5.188131
 20
8.666424
 30
0.0
 10
5.088177
 20
8.740281
 30
0.0
 10
4.819166
 20
8.893330
 30
0.0
 10
4.650000
 20
8.950000
 30
0.0
 10
4.450000
 20
9.000010
 30
0.0
 10
4.250000
 20
9.000010
 30
0.0
 10
4.000000
 20
9.000010
 30
0.0
 10
3.800000
 20
8.950000
 30
0.0
 10
3.600000
 20
8.899991
 30
0.0
 10
3.400000
 20
8.850009
 30
0.0
 10
3.250000
 20
8.799999
 30
0.0
 10
3.050000
 20
8.700008
 30
0.0
 10
2.900000
 20
8.600017
 30
0.0
 10
2.797690
 20
8.490063
 30
0.0
 10
2.723886
 20
8.348811
 30
0.0
 10
2.650083
 20
8.207587
 30
0.0
 10
2.610528
 20
8.054594
 30
0.0
 10
2.570974
 20
7.901601
 30
0.0
 10
2.579954
 20
7.642662
 30
0.0
 10
2.588935
 20
7.383724
 30
0.0
 10
2.664450
 20
7.227711
 30
0.0
 10
2.739965
 20
7.071642
 30
0.0
 10
2.889356
 20
6.931914
 30
0.0
 10
3.038748
 20
6.792158
 30
0.0
 10
3.248477
 20
6.684292
 30
0.0
 10
3.458206
 20
6.576455
 30
0.0
 10
4.164368
 20
6.323894
 30
0.0
 10
5.244830
 20
5.921248
 30
0.0
 10
5.619130
 20
5.771190
 30
0.0
 10
5.841935
 20
5.653899
 30
0.0
 10
6.267953
 20
5.400943
 30
0.0
 10
6.471165
 20
5.265251
 30
0.0
 10
6.662460
 20
5.076952
 30
0.0
 10
6.853756
 20
4.888625
 30
0.0
 10
6.973014
 20
4.705209
 30
0.0
 10
7.092272
 20
4.521793
 30
0.0
 10
7.164631
 20
4.334171
 30
0.0
 10
7.277196
 20
3.987969
 30
0.0
 10
7.317403
 20
3.829389
 30
0.0
 10
7.317883
 20
3.358614
 30
0.0
 10
7.318363
 20
2.887839
 30
0.0
 10
7.254083
 20
2.652437
 30
0.0
 10
7.189804
 20
2.417064
 30
0.0
 10
7.060406
 20
2.157730
 30
0.0
 10
6.931007
 20
1.898452
 30
0.0
 10
6.775748
 20
1.704396
 30
0.0
 10
6.620488
 20
1.510340
 30
0.0
 10
6.486990
 20
1.393021
 30
0.0
 10
6.212259
 20
1.169614
 30
0.0
 10
6.071026
 20
1.063442
 30
0.0
 10
5.800000
 20
0.900007
 30
0.0
 10
5.650000
 20
0.800015
 30
0.0
 10
5.450000
 20
0.699996
 30
0.0
 10
5.200000
 20
0.600004
 30
0.0
 10
4.800000
 20
0.500013
 30
0.0
 10
4.400000
 20
0.450003
 30
0.0
 10
4.036781
 20
0.452826
 30
0.0
 10
3.759273
 20
0.457059
 30
0.0
 10
3.759248
 20
0.458216
 30
0.0
  0
LWPOLYLINE
  5
103
100
AcDbEntity
  8
__
 62
7
100
AcDbPolyline
 90
2
 70
0
 10
5.806667
 20
0.500013
 30
0.0
 10
5.806667
 20
0.750006
 30
0.0
  0
LWPOLYLINE
  5
104
100
AcDbEntity
  8
o_
 62
7
100
AcDbPolyline
 90
76
 70
0
 10
4.702642
 20
0.378686
 30
0.0
 10
4.243078
 20
0.381508
 30
0.0
 10
3.938969
 20
0.426974
 30
0.0
 10
3.524532
 20
0.521039
 30
0.0
 10
3.141673
 20
0.648518
 30
0.0
 10
2.790172
 20
0.803995
 30
0.0
 10
2.416610
 20
1.020826
 30
0.0
 10
2.074884
 20
1.258231
 30
0.0
 10
1.736679
 20
1.555496
 30
0.0
 10
1.392917
 20
1.922103
 30
0.0
 10
1.125505
 20
2.278606
 30
0.0
 10
0.888336
 20
2.679248
 30
0.0
 10
0.687983
 20
3.112234
 30
0.0
 10
0.604348
 20
3.324352
 30
0.0
 10
0.542757
 20
3.568136
 30
0.0
 10
0.481166
 20
3.811947
 30
0.0
 10
0.447736
 20
4.063040
 30
0.0
 10
0.414306
 20
4.314162
 30
0.0
 10
0.413846
 20
4.576798
 30
0.0
 10
0.413386
 20
4.839434
 30
0.0
 10
0.438112
 20
5.083500
 30
0.0
 10
0.508343
 20
5.547078
 30
0.0
 10
0.637626
 20
6.018417
 30
0.0
 10
0.721403
 20
6.270272
 30
0.0
 10
0.836091
 20
6.505928
 30
0.0
 10
0.950780
 20
6.741612
 30
0.0
 10
1.090529
 20
6.953702
 30
0.0
 10
1.373215
 20
7.342576
 30
0.0
 10
1.516153
 20
7.519331
 30
0.0
 10
1.807302
 20
7.803247
 30
0.0
 10
2.263422
 20
8.217408
 30
0.0
 10
2.640857
 20
8.490091
 30
0.0
 10
3.053593
 20
8.740846
 30
0.0
 10
3.502457
 20
8.953274
 30
0.0
 10
3.949929
 20
9.117302
 30
0.0
 10
4.372699
 20
9.224744
 30
0.0
 10
4.855829
 20
9.300266
 30
0.0
 10
5.115070
 20
9.328206
 30
0.0
 10
5.492147
 20
9.314378
 30
0.0
 10
5.869225
 20
9.300549
 30
0.0
 10
6.102400
 20
9.251244
 30
0.0
 10
6.561963
 20
9.129748
 30
0.0
 10
6.788351
 20
9.057584
 30
0.0
 10
7.030577
 20
8.943735
 30
0.0
 10
7.272804
 20
8.829858
 30
0.0
 10
7.513708
 20
8.672040
 30
0.0
 10
7.921181
 20
8.378105
 30
0.0
 10
8.310042
 20
8.008168
 30
0.0
 10
8.532334
 20
7.774319
 30
0.0
 10
8.691189
 20
7.552492
 30
0.0
 10
8.850044
 20
7.330666
 30
0.0
 10
9.012429
 20
7.011670
 30
0.0
 10
9.174815
 20
6.692646
 30
0.0
 10
9.258554
 20
6.433622
 30
0.0
 10
9.392915
 20
5.939564
 30
0.0
 10
9.443537
 20
5.704530
 30
0.0
 10
9.455916
 20
5.256756
 30
0.0
 10
9.468294
 20
4.808982
 30
0.0
 10
9.429358
 20
4.526167
 30
0.0
 10
9.390420
 20
4.243352
 30
0.0
 10
9.321980
 20
3.979362
 30
0.0
 10
9.190040
 20
3.555153
 30
0.0
 10
9.014264
 20
3.171049
 30
0.0
 10
8.768914
 20
2.749324
 30
0.0
 10
8.489818
 20
2.372586
 30
0.0
 10
8.096339
 20
1.949140
 30
0.0
 10
7.613209
 20
1.514263
 30
0.0
 10
7.130079
 20
1.162558
 30
0.0
 10
6.658732
 20
0.886234
 30
0.0
 10
6.256835
 20
0.700617
 30
0.0
 10
5.926892
 20
0.580051
 30
0.0
 10
5.574635
 20
0.484152
 30
0.0
 10
5.221125
 20
0.413060
 30
0.0
 10
5.067937
 20
0.387943
 30
0.0
 10
4.702643
 20
0.379476
 30
0.0
 10
4.702642
 20
0.378686
 30
0.0
  0
LWPOLYLINE
  5
105
100
AcDbEntity
  8
o_
 62
7
100
AcDbPolyline
 90
70
 70
0
 10
5.232907
 20
0.989810
 30
0.0
 10
5.680686
 20
0.998559
 30
0.0
 10
5.857441
 20
1.037308
 30
0.0
 10
6.273436
 20
1.155502
 30
0.0
 10
6.512675
 20
1.234948
 30
0.0
 10
6.709431
 20
1.333641
 30
0.0
 10
7.118293
 20
1.576239
 30
0.0
 10
7.330399
 20
1.720144
 30
0.0
 10
7.602727
 20
1.991558
 30
0.0
 10
7.875056
 20
2.262999
 30
0.0
 10
8.055652
 20
2.534835
 30
0.0
 10
8.236249
 20
2.806700
 30
0.0
 10
8.352191
 20
3.053306
 30
0.0
 10
8.468132
 20
3.299940
 30
0.0
 10
8.543130
 20
3.535172
 30
0.0
 10
8.666330
 20
3.994743
 30
0.0
 10
8.714533
 20
4.219081
 30
0.0
 10
8.726524
 20
4.624098
 30
0.0
 10
8.738516
 20
5.029144
 30
0.0
 10
8.710161
 20
5.223058
 30
0.0
 10
8.622582
 20
5.651839
 30
0.0
 10
8.563357
 20
5.886676
 30
0.0
 10
8.458188
 20
6.148747
 30
0.0
 10
8.256664
 20
6.587603
 30
0.0
 10
8.000000
 20
7.000014
 30
0.0
 10
7.839691
 20
7.235698
 30
0.0
 10
7.662127
 20
7.434580
 30
0.0
 10
7.301427
 20
7.795796
 30
0.0
 10
7.118291
 20
7.958074
 30
0.0
 10
6.870834
 20
8.123118
 30
0.0
 10
6.623377
 20
8.288133
 30
0.0
 10
6.426864
 20
8.382226
 30
0.0
 10
5.990868
 20
8.554720
 30
0.0
 10
5.751385
 20
8.633121
 30
0.0
 10
5.506015
 20
8.674128
 30
0.0
 10
5.260645
 20
8.715135
 30
0.0
 10
4.834346
 20
8.701588
 30
0.0
 10
4.408047
 20
8.688042
 30
0.0
 10
4.177372
 20
8.638879
 30
0.0
 10
3.753160
 20
8.528586
 30
0.0
 10
3.335733
 20
8.367974
 30
0.0
 10
2.947367
 20
8.167455
 30
0.0
 10
2.605641
 20
7.931348
 30
0.0
 10
2.428391
 20
7.796248
 30
0.0
 10
2.191029
 20
7.549586
 30
0.0
 10
1.953667
 20
7.302895
 30
0.0
 10
1.805992
 20
7.082141
 30
0.0
 10
1.565944
 20
6.677632
 30
0.0
 10
1.401420
 20
6.312267
 30
0.0
 10
1.262680
 20
5.870222
 30
0.0
 10
1.196092
 20
5.609759
 30
0.0
 10
1.166552
 20
5.355985
 30
0.0
 10
1.137011
 20
5.102211
 30
0.0
 10
1.151233
 20
4.778587
 30
0.0
 10
1.165454
 20
4.454962
 30
0.0
 10
1.222890
 20
4.207341
 30
0.0
 10
1.280326
 20
3.959691
 30
0.0
 10
1.368293
 20
3.724204
 30
0.0
 10
1.545013
 20
3.311962
 30
0.0
 10
1.797903
 20
2.886400
 30
0.0
 10
2.104378
 20
2.472210
 30
0.0
 10
2.396471
 20
2.158633
 30
0.0
 10
2.711199
 20
1.875000
 30
0.0
 10
3.076493
 20
1.609457
 30
0.0
 10
3.473921
 20
1.380631
 30
0.0
 10
3.850999
 20
1.212624
 30
0.0
 10
4.266643
 20
1.084411
 30
0.0
 10
4.643721
 20
1.003554
 30
0.0
 10
4.785125
 20
0.981541
 30
0.0
 10
5.232907
 20
0.989810
 30
0.0
  0
ENDSEC
  0
SECTION
  2
OBJECTS
  0
DICTIONARY
  5
C
330
0
100
AcDbDictionary
  3
ACAD_GROUP
350
D
  3
ACAD_MLINESTYLE
350
17
  0
DICTIONARY
  5
D
330
C
100
AcDbDictionary
  0
DICTIONARY
  5
1A
330
C
100
AcDbDictionary
  0
DICTIONARY
  5
17
330
C
100
AcDbDictionary
  3
STANDARD
350
18
  0
DICTIONARY
  5
19
330
C
100
AcDbDictionary
  0
ENDSEC
  0
EOF
